<mxfile host="app.diagrams.net" modified="2024-04-29T11:12:10.334Z" agent="Mozilla/5.0 (Windows NT 10.0; Win64; x64) AppleWebKit/537.36 (KHTML, like Gecko) Chrome/121.0.0.0 Safari/537.36 OPR/107.0.0.0" etag="YdgZvyPc1dOXn5wAdt-C" version="24.2.2" type="device">
  <diagram name="Page-1" id="V2MJkBHqC5qzqQfdxPPU">
    <mxGraphModel dx="1158" dy="665" grid="1" gridSize="10" guides="1" tooltips="1" connect="1" arrows="1" fold="1" page="1" pageScale="1" pageWidth="850" pageHeight="1100" math="0" shadow="0">
      <root>
        <mxCell id="0" />
        <mxCell id="1" parent="0" />
        <mxCell id="Xl6DN4wOlipSi7Acw3B6-37" value="" style="group" vertex="1" connectable="0" parent="1">
          <mxGeometry x="120" y="50" width="480" height="600" as="geometry" />
        </mxCell>
        <mxCell id="Xl6DN4wOlipSi7Acw3B6-1" value="" style="rounded=0;whiteSpace=wrap;html=1;" vertex="1" parent="Xl6DN4wOlipSi7Acw3B6-37">
          <mxGeometry width="480" height="600" as="geometry" />
        </mxCell>
        <mxCell id="Xl6DN4wOlipSi7Acw3B6-7" value="" style="group" vertex="1" connectable="0" parent="Xl6DN4wOlipSi7Acw3B6-37">
          <mxGeometry x="178" y="370" width="125" height="30" as="geometry" />
        </mxCell>
        <mxCell id="Xl6DN4wOlipSi7Acw3B6-5" value="" style="rounded=0;whiteSpace=wrap;html=1;" vertex="1" parent="Xl6DN4wOlipSi7Acw3B6-7">
          <mxGeometry x="2.5" y="5" width="120" height="20" as="geometry" />
        </mxCell>
        <mxCell id="Xl6DN4wOlipSi7Acw3B6-6" value="Add Task" style="text;html=1;align=center;verticalAlign=middle;whiteSpace=wrap;rounded=0;" vertex="1" parent="Xl6DN4wOlipSi7Acw3B6-7">
          <mxGeometry width="125" height="30" as="geometry" />
        </mxCell>
        <mxCell id="Xl6DN4wOlipSi7Acw3B6-8" value="" style="group" vertex="1" connectable="0" parent="Xl6DN4wOlipSi7Acw3B6-37">
          <mxGeometry x="178" y="400" width="125" height="30" as="geometry" />
        </mxCell>
        <mxCell id="Xl6DN4wOlipSi7Acw3B6-9" value="" style="rounded=0;whiteSpace=wrap;html=1;" vertex="1" parent="Xl6DN4wOlipSi7Acw3B6-8">
          <mxGeometry x="2.5" y="5" width="120" height="20" as="geometry" />
        </mxCell>
        <mxCell id="Xl6DN4wOlipSi7Acw3B6-10" value="Finish Task" style="text;html=1;align=center;verticalAlign=middle;whiteSpace=wrap;rounded=0;" vertex="1" parent="Xl6DN4wOlipSi7Acw3B6-8">
          <mxGeometry width="125" height="30" as="geometry" />
        </mxCell>
        <mxCell id="Xl6DN4wOlipSi7Acw3B6-11" value="" style="group" vertex="1" connectable="0" parent="Xl6DN4wOlipSi7Acw3B6-37">
          <mxGeometry x="180" y="430" width="125" height="30" as="geometry" />
        </mxCell>
        <mxCell id="Xl6DN4wOlipSi7Acw3B6-12" value="" style="rounded=0;whiteSpace=wrap;html=1;" vertex="1" parent="Xl6DN4wOlipSi7Acw3B6-11">
          <mxGeometry x="2.5" y="5" width="120" height="20" as="geometry" />
        </mxCell>
        <mxCell id="Xl6DN4wOlipSi7Acw3B6-13" value="Delete task" style="text;html=1;align=center;verticalAlign=middle;whiteSpace=wrap;rounded=0;" vertex="1" parent="Xl6DN4wOlipSi7Acw3B6-11">
          <mxGeometry width="125" height="30" as="geometry" />
        </mxCell>
        <mxCell id="Xl6DN4wOlipSi7Acw3B6-14" value="" style="group" vertex="1" connectable="0" parent="Xl6DN4wOlipSi7Acw3B6-37">
          <mxGeometry x="42.5" y="60" width="400" height="300" as="geometry" />
        </mxCell>
        <mxCell id="Xl6DN4wOlipSi7Acw3B6-3" value="" style="rounded=1;whiteSpace=wrap;html=1;" vertex="1" parent="Xl6DN4wOlipSi7Acw3B6-14">
          <mxGeometry width="400" height="300" as="geometry" />
        </mxCell>
        <mxCell id="Xl6DN4wOlipSi7Acw3B6-4" value="&lt;font style=&quot;font-size: 16px;&quot;&gt;1) Uztaisit est&lt;br&gt;2) nomazgat traukus&lt;br&gt;3) sakartot traukus skapi&lt;br&gt;4) uztaisit brokastis&lt;br&gt;5) ...&lt;/font&gt;" style="text;html=1;align=left;verticalAlign=top;whiteSpace=wrap;rounded=0;horizontal=1;" vertex="1" parent="Xl6DN4wOlipSi7Acw3B6-14">
          <mxGeometry x="11.764705882352942" y="6.521739130434783" width="376.47058823529414" height="286.95652173913044" as="geometry" />
        </mxCell>
        <mxCell id="Xl6DN4wOlipSi7Acw3B6-15" value="" style="rounded=0;whiteSpace=wrap;html=1;" vertex="1" parent="Xl6DN4wOlipSi7Acw3B6-37">
          <mxGeometry x="147.5" y="30" width="190" height="20" as="geometry" />
        </mxCell>
        <mxCell id="Xl6DN4wOlipSi7Acw3B6-19" value="&lt;font style=&quot;font-size: 15px;&quot;&gt;&lt;b&gt;Task&lt;/b&gt;:&lt;/font&gt;" style="text;html=1;align=center;verticalAlign=middle;whiteSpace=wrap;rounded=0;" vertex="1" parent="Xl6DN4wOlipSi7Acw3B6-37">
          <mxGeometry x="152.5" y="10" width="180" height="20" as="geometry" />
        </mxCell>
        <mxCell id="Xl6DN4wOlipSi7Acw3B6-20" value="" style="group" vertex="1" connectable="0" parent="Xl6DN4wOlipSi7Acw3B6-37">
          <mxGeometry x="180" y="460" width="125" height="30" as="geometry" />
        </mxCell>
        <mxCell id="Xl6DN4wOlipSi7Acw3B6-21" value="" style="rounded=0;whiteSpace=wrap;html=1;" vertex="1" parent="Xl6DN4wOlipSi7Acw3B6-20">
          <mxGeometry x="2.5" y="5" width="120" height="20" as="geometry" />
        </mxCell>
        <mxCell id="Xl6DN4wOlipSi7Acw3B6-22" value="Edit Task" style="text;html=1;align=center;verticalAlign=middle;whiteSpace=wrap;rounded=0;" vertex="1" parent="Xl6DN4wOlipSi7Acw3B6-20">
          <mxGeometry width="125" height="30" as="geometry" />
        </mxCell>
        <mxCell id="Xl6DN4wOlipSi7Acw3B6-23" value="" style="group" vertex="1" connectable="0" parent="Xl6DN4wOlipSi7Acw3B6-37">
          <mxGeometry x="180" y="490" width="125" height="30" as="geometry" />
        </mxCell>
        <mxCell id="Xl6DN4wOlipSi7Acw3B6-24" value="" style="rounded=0;whiteSpace=wrap;html=1;" vertex="1" parent="Xl6DN4wOlipSi7Acw3B6-23">
          <mxGeometry x="2.5" y="5" width="120" height="20" as="geometry" />
        </mxCell>
        <mxCell id="Xl6DN4wOlipSi7Acw3B6-25" value="View finished tasks" style="text;html=1;align=center;verticalAlign=middle;whiteSpace=wrap;rounded=0;" vertex="1" parent="Xl6DN4wOlipSi7Acw3B6-23">
          <mxGeometry width="125" height="30" as="geometry" />
        </mxCell>
        <mxCell id="Xl6DN4wOlipSi7Acw3B6-27" value="" style="group" vertex="1" connectable="0" parent="Xl6DN4wOlipSi7Acw3B6-37">
          <mxGeometry x="180" y="520" width="125" height="30" as="geometry" />
        </mxCell>
        <mxCell id="Xl6DN4wOlipSi7Acw3B6-28" value="" style="rounded=0;whiteSpace=wrap;html=1;" vertex="1" parent="Xl6DN4wOlipSi7Acw3B6-27">
          <mxGeometry x="2.5" y="5" width="120" height="20" as="geometry" />
        </mxCell>
        <mxCell id="Xl6DN4wOlipSi7Acw3B6-29" value="View tasks" style="text;html=1;align=center;verticalAlign=middle;whiteSpace=wrap;rounded=0;" vertex="1" parent="Xl6DN4wOlipSi7Acw3B6-27">
          <mxGeometry width="125" height="30" as="geometry" />
        </mxCell>
        <mxCell id="Xl6DN4wOlipSi7Acw3B6-33" value="Task choice" style="rounded=1;fillColor=#F1F2F4;strokeColor=none;html=1;whiteSpace=wrap;fontColor=#596780;align=left;fontSize=12;spacingLeft=10;sketch=0;" vertex="1" parent="Xl6DN4wOlipSi7Acw3B6-37">
          <mxGeometry x="183" y="560" width="122" height="20" as="geometry" />
        </mxCell>
        <mxCell id="Xl6DN4wOlipSi7Acw3B6-34" value="" style="shape=triangle;direction=south;fillColor=#596780;strokeColor=none;html=1;sketch=0;" vertex="1" parent="Xl6DN4wOlipSi7Acw3B6-33">
          <mxGeometry x="1" y="0.5" width="12" height="6" relative="1" as="geometry">
            <mxPoint x="-20" y="-3" as="offset" />
          </mxGeometry>
        </mxCell>
      </root>
    </mxGraphModel>
  </diagram>
</mxfile>
